<?xml version="1.0" standalone="no"?>
<!DOCTYPE svg PUBLIC "-//W3C//DTD SVG 20010904//EN"
 "http://www.w3.org/TR/2001/REC-SVG-20010904/DTD/svg10.dtd">
<svg version="1.0" xmlns="http://www.w3.org/2000/svg"
 width="512.000000pt" height="512.000000pt" viewBox="0 0 512.000000 512.000000"
 preserveAspectRatio="xMidYMid meet">

<g transform="translate(0.000000,512.000000) scale(0.100000,-0.100000)"
fill="#fff" stroke="none">
<path d="M891 3897 c-6 -8 -12 -80 -13 -188 l-3 -174 -289 -3 c-200 -1 -294
-6 -303 -14 -22 -18 -12 -71 17 -85 31 -16 1043 -19 1085 -3 32 12 41 34 29
69 l-9 26 -210 5 -210 5 0 135 0 135 1168 3 1167 2 0 -1000 0 -1000 -593 0
-592 0 -24 45 c-32 60 -129 151 -193 180 -79 36 -175 49 -251 36 -132 -23
-263 -114 -318 -223 l-19 -38 -175 0 -175 0 2 238 3 237 184 3 c115 1 189 7
198 13 19 16 16 63 -5 82 -17 15 -62 17 -443 17 -233 0 -429 -4 -435 -8 -24
-16 -33 -48 -21 -73 l13 -24 202 -3 202 -2 0 -239 0 -239 -32 -7 c-88 -19
-144 -92 -136 -177 6 -55 28 -92 78 -126 32 -21 40 -22 284 -22 l251 0 25 -47
c37 -70 119 -146 197 -185 65 -32 73 -33 183 -33 108 0 119 2 182 32 81 38
147 97 195 175 l36 58 727 0 728 0 30 -52 c40 -72 119 -143 200 -181 54 -25
83 -32 154 -35 178 -9 326 72 403 221 l25 47 161 0 c184 0 214 8 255 70 18 27
25 52 26 88 0 82 -44 141 -122 162 l-38 10 -5 363 c-5 377 -8 412 -55 547 -93
266 -326 499 -592 592 -116 40 -183 49 -397 55 l-213 5 0 257 c0 187 -3 260
-12 269 -19 19 -2511 17 -2527 -1z m2974 -652 c355 -62 638 -345 700 -700 11
-66 15 -166 15 -411 l0 -324 -83 0 -83 0 -42 65 c-50 75 -106 124 -184 160
-125 57 -252 55 -376 -6 -73 -36 -160 -118 -187 -178 l-18 -41 -89 0 -88 0 0
725 0 725 174 0 c110 0 205 -6 261 -15z m-2001 -1304 c63 -28 131 -94 163
-160 24 -48 28 -68 28 -141 -1 -72 -5 -93 -28 -137 -54 -105 -129 -162 -240
-182 -111 -20 -215 17 -296 105 -58 64 -82 127 -82 217 0 148 87 265 234 313
55 18 163 11 221 -15z m2277 -3 c65 -30 122 -85 157 -153 24 -44 27 -62 27
-145 0 -80 -4 -102 -23 -138 -63 -119 -170 -184 -299 -184 -63 0 -84 5 -138
31 -78 39 -136 102 -166 180 -29 77 -23 184 13 256 26 51 93 121 139 146 86
46 200 48 290 7z m-2841 -298 l0 -60 -212 0 c-151 0 -220 4 -238 13 -31 16
-39 61 -14 88 16 18 33 19 241 19 l223 0 0 -60z m2270 0 l0 -60 -700 0 -700 0
0 60 0 60 700 0 700 0 0 -60z m1152 48 c30 -24 31 -56 4 -83 -24 -24 -29 -25
-156 -25 l-130 0 0 60 0 60 133 0 c91 0 138 -4 149 -12z"/>
<path d="M3582 3108 c-17 -17 -17 -739 0 -756 9 -9 116 -12 419 -12 357 0 410
2 423 16 22 22 21 123 -4 218 -67 262 -278 469 -542 531 -78 18 -279 20 -296
3z m273 -110 c165 -34 336 -169 413 -328 37 -76 73 -203 61 -214 -2 -2 -149
-6 -326 -8 l-323 -5 0 289 0 288 63 -6 c34 -3 85 -10 112 -16z"/>
<path d="M1653 1801 c-109 -51 -131 -191 -45 -282 86 -90 226 -69 282 42 77
150 -82 312 -237 240z m127 -111 c41 -41 10 -120 -47 -120 -29 0 -73 42 -73
68 0 59 79 93 120 52z"/>
<path d="M3940 1809 c-32 -13 -78 -56 -96 -91 -18 -34 -18 -109 0 -151 27 -67
118 -116 189 -103 45 8 96 43 124 85 33 48 32 129 -2 187 -41 69 -140 103
-215 73z m123 -130 c37 -51 -14 -121 -77 -105 -29 7 -58 58 -48 85 20 57 89
68 125 20z"/>
<path d="M1571 3516 c-7 -8 -11 -27 -9 -43 5 -45 35 -53 203 -53 168 0 198 8
203 53 6 54 -4 57 -203 57 -147 0 -185 -3 -194 -14z"/>
<path d="M492 3138 c-15 -15 -15 -43 -2 -69 10 -18 23 -19 223 -19 152 0 216
3 225 12 15 15 15 61 0 76 -17 17 -429 17 -446 0z"/>
<path d="M1102 3138 c-15 -15 -15 -61 0 -76 9 -9 141 -12 533 -12 493 0 523 1
538 18 21 23 22 46 1 66 -14 14 -76 16 -538 16 -393 0 -525 -3 -534 -12z"/>
<path d="M292 2764 c-24 -17 -30 -62 -10 -82 8 -8 61 -12 173 -12 148 0 163 2
180 20 23 26 13 68 -21 80 -14 6 -87 10 -162 10 -108 0 -142 -3 -160 -16z"/>
<path d="M813 2770 c-30 -12 -38 -46 -19 -75 l16 -25 568 0 c428 0 571 3 580
12 20 20 14 65 -10 82 -20 14 -90 16 -568 15 -300 0 -555 -4 -567 -9z"/>
<path d="M1542 2384 c-26 -18 -29 -56 -6 -78 13 -14 55 -16 304 -16 313 0 320
1 320 55 0 51 -21 55 -320 55 -233 0 -279 -2 -298 -16z"/>
</g>
</svg>
